# xmcd CD database file
#
# Track frame offsets:
#	150
#	15089
#	30826
#	45088
#	71604
#	85411
#	101015
#	117428
#	130175
#
# Disc length: 1925 seconds
#
# Revision: 0
# Processed by: cddbd v1.5.2PL0 Copyright (c) Steve Scherf et al.
# Submitted via: CDex 1.50
#
DISCID=60078309
DTITLE=Jorge and Mateus - Pelo Amor de Deus
DYEAR=2007
DGENRE=Country
TTITLE0=Querendo te amar
TTITLE1=Pode Chorar
TTITLE2=Fogueira
TTITLE3=Tem Nada a Ver/Te Cuida Coração
TTITLE4=Traz Ela de Volta pra Mim
TTITLE5=Castigo
TTITLE6=O Amor Não é Jogo de Azar
TTITLE7=Goiânia Me Espera
TTITLE8=De Tanto te Querer
EXTD=YEAR: 2007
EXTT0=
EXTT1=
EXTT2=
EXTT3=
EXTT4=
EXTT5=
EXTT6=
EXTT7=
EXTT8=
PLAYORDER=
